<svg width="1000" height="280" viewBox="0 0 1000 280" xmlns="http://www.w3.org/2000/svg" role="img" aria-label="gotify logo"><defs><linearGradient id="g_bg" x1="0" y1="0" x2="1" y2="1"><stop offset="0" stop-color="#19c3ed"/><stop offset="1" stop-color="#12a069"/></linearGradient><linearGradient id="g_accent" x1="0" y1="0" x2="1" y2="1"><stop offset="0" stop-color="#ffffff"/><stop offset="1" stop-color="#e8fff5"/></linearGradient><filter id="softShadow" x="-20%" y="-20%" width="140%" height="140%"><feDropShadow dx="0" dy="6" stdDeviation="10" flood-color="#0a3d2b" flood-opacity="0.25"/></filter></defs><g filter="url(#softShadow)"><path d="M40 140 L140 40 L480 40 L380 140 L480 240 L140 240 Z" fill="url(#g_bg)" opacity="0.95"/><path d="M360 140 L500 18 780 19 L700 140 L780 260 L500 260" fill="url(#g_bg)"/></g><g transform="translate(120,60)" fill="none" stroke="url(#g_accent)" stroke-linecap="round" stroke-linejoin="round"><path d="M78 106h-40" stroke-width="8"/><path d="M58 44c0 0-20 10-22 36v18c0 6-3 11-8 14h56c-5-3-8-8-8-14V80c0-26-20-36-20-36z" stroke-width="6" fill="rgba(255,255,255,0.08)"/><circle cx="58" cy="118" r="6" fill="url(#g_accent)"/><path d="M92 56c10 8 16 20 16 34" stroke-width="5" opacity="0.8"/><path d="M98 44c14 12 22 28 22 46" stroke-width="3.5" opacity="0.6"/></g><g transform="translate(300,150)"><text font-family="Inter, system-ui, -apple-system, Segoe UI, Roboto, Ubuntu, Cantarell, Noto Sans, Arial, sans-serif" font-size="72" font-weight="800" fill="#ffffff" letter-spacing="0.5">gotify</text></g><g transform="translate(300,200)"><text font-family="Inter, system-ui, -apple-system, Segoe UI, Roboto, Ubuntu, Cantarell, Noto Sans, Arial, sans-serif" font-size="20" fill="#eafff4" opacity="0.9">Microservices notification template in Go</text></g></svg>